<svg width="15" height="21" viewBox="0 0 15 21" fill="none" xmlns="http://www.w3.org/2000/svg">
<path d="M7.50008 0.130859C3.50613 0.130859 0.256836 3.38016 0.256836 7.37406C0.256836 12.3306 6.73883 19.6071 7.0148 19.9145C7.27402 20.2032 7.7266 20.2027 7.98535 19.9145C8.26133 19.6071 14.7433 12.3306 14.7433 7.37406C14.7432 3.38016 11.494 0.130859 7.50008 0.130859ZM7.50008 11.0183C5.49062 11.0183 3.85586 9.38351 3.85586 7.37406C3.85586 5.36461 5.49066 3.72984 7.50008 3.72984C9.50949 3.72984 11.1443 5.36465 11.1443 7.3741C11.1443 9.38355 9.50949 11.0183 7.50008 11.0183Z" fill="#C4CFEA"/>
</svg>
