<svg width="16" height="16" viewBox="0 0 16 16" fill="none" xmlns="http://www.w3.org/2000/svg">
<path d="M14.2964 10.4766C13.378 10.4766 12.4763 10.333 11.6218 10.0506C11.2031 9.90781 10.6884 10.0388 10.4329 10.3013L8.74625 11.5745C6.79027 10.5304 5.58543 9.32594 4.55559 7.38465L5.79133 5.74199C6.11238 5.42137 6.22754 4.95301 6.08957 4.51355C5.80598 3.65457 5.66191 2.75328 5.66191 1.83453C5.66195 1.17082 5.12199 0.630859 4.45832 0.630859H1.70363C1.03996 0.630859 0.5 1.17082 0.5 1.83449C0.5 9.44191 6.68898 15.6309 14.2964 15.6309C14.9601 15.6309 15.5 15.0909 15.5 14.4272V11.6802C15.5 11.0166 14.96 10.4766 14.2964 10.4766Z" fill="#C4CFEA"/>
</svg>
